<mxfile host="app.diagrams.net" modified="2022-12-12T02:03:56.043Z" agent="5.0 (Windows NT 10.0; Win64; x64) AppleWebKit/537.36 (KHTML, like Gecko) Chrome/106.0.5249.207 Whale/3.17.145.18 Safari/537.36" version="20.6.0" etag="EEFC7lhZHAHcn4LZ-nx7" type="github">
  <diagram id="qxlkF3oZJwM-nL5T5aOr" name="페이지-1">
    <mxGraphModel dx="992" dy="579" grid="1" gridSize="10" guides="1" tooltips="1" connect="1" arrows="1" fold="1" page="1" pageScale="1" pageWidth="827" pageHeight="1169" math="0" shadow="0">
      <root>
        <mxCell id="0" />
        <mxCell id="1" parent="0" />
        <mxCell id="BDnWyR-M0Nw19bjqFnfu-3" value="Http Request" style="edgeStyle=orthogonalEdgeStyle;rounded=0;orthogonalLoop=1;jettySize=auto;html=1;exitX=1;exitY=0.25;exitDx=0;exitDy=0;entryX=0;entryY=0.25;entryDx=0;entryDy=0;fontSize=15;fontFamily=맑은 고딕;strokeWidth=2;" edge="1" parent="1" source="BDnWyR-M0Nw19bjqFnfu-1" target="BDnWyR-M0Nw19bjqFnfu-2">
          <mxGeometry relative="1" as="geometry" />
        </mxCell>
        <mxCell id="BDnWyR-M0Nw19bjqFnfu-1" value="Client" style="rounded=0;whiteSpace=wrap;html=1;fillColor=#dae8fc;strokeColor=#6c8ebf;fontFamily=맑은 고딕;fontSize=20;fontStyle=1;strokeWidth=2;" vertex="1" parent="1">
          <mxGeometry x="80" y="120" width="160" height="160" as="geometry" />
        </mxCell>
        <mxCell id="BDnWyR-M0Nw19bjqFnfu-4" value="Http Response" style="edgeStyle=orthogonalEdgeStyle;rounded=0;orthogonalLoop=1;jettySize=auto;html=1;exitX=0;exitY=0.75;exitDx=0;exitDy=0;entryX=1;entryY=0.75;entryDx=0;entryDy=0;fontSize=15;fontFamily=맑은 고딕;strokeWidth=2;" edge="1" parent="1" source="BDnWyR-M0Nw19bjqFnfu-2" target="BDnWyR-M0Nw19bjqFnfu-1">
          <mxGeometry relative="1" as="geometry" />
        </mxCell>
        <mxCell id="BDnWyR-M0Nw19bjqFnfu-2" value="Web Server" style="rounded=0;whiteSpace=wrap;html=1;fillColor=#dae8fc;strokeColor=#6c8ebf;fontFamily=맑은 고딕;fontSize=20;fontStyle=1;strokeWidth=2;verticalAlign=top;spacingTop=12;" vertex="1" parent="1">
          <mxGeometry x="440" y="120" width="160" height="160" as="geometry" />
        </mxCell>
        <mxCell id="BDnWyR-M0Nw19bjqFnfu-5" value="Servlet Container" style="rounded=0;whiteSpace=wrap;html=1;strokeWidth=2;fontFamily=맑은 고딕;fontSize=15;fillColor=#d5e8d4;strokeColor=#82b366;" vertex="1" parent="1">
          <mxGeometry x="450" y="200" width="140" height="50" as="geometry" />
        </mxCell>
      </root>
    </mxGraphModel>
  </diagram>
</mxfile>
